<svg xmlns="http://www.w3.org/2000/svg" viewBox="0 0 140 39"><rect width="140" height="39" fill="#506ee4" rx="12" ry="12"/><path fill="#fff" d="m16.35 24.05-.65-.69 3.16-3.78.82 1.03c.64.8 1.48 1.46 2.41 1.9.88.42 1.83.63 2.75.63 1.08 0 2.01-.24 2.6-.67.54-.39.8-.91.8-1.6 0-.75-.23-1.21-.81-1.65-.67-.5-1.76-.91-3.03-1.39-.11-.04-.22-.08-.33-.13-1.74-.65-3.4-1.31-4.74-2.38-.78-.62-1.35-1.3-1.76-2.09-.45-.87-.68-1.86-.68-2.94 0-1.88.81-3.63 2.29-4.91 1.43-1.24 3.36-1.92 5.43-1.92 2.67 0 5.28.96 7.53 2.78l.81.66-2.94 3.82-.86-.7c-1.51-1.25-3.17-1.96-4.55-1.96-1.29 0-2.79.56-2.82 2.13 0 .7.33 1.08.84 1.44.73.51 1.9.96 3.13 1.43h.01c.19.08.39.16.58.23 1.74.68 3.39 1.33 4.64 2.35 1.48 1.22 2.2 2.82 2.2 4.91 0 1.13-.24 2.18-.72 3.12a6.64 6.64 0 0 1-1.92 2.28c-1.51 1.15-3.54 1.79-5.72 1.79-3.23 0-6.23-1.32-8.47-3.71Zm18.19-8.39a8.5 8.5 0 0 1 1.87-2.76c.8-.83 1.75-1.44 2.79-1.87a8.62 8.62 0 0 1 6.8 0c1.04.43 1.96 1.04 2.76 1.87.8.8 1.44 1.71 1.87 2.76.46 1.07.7 2.24.7 3.4V32.1l-4.59 1.53v-6.89l-.73.37c-1.1.46-2.24.67-3.4.67s-2.33-.21-3.4-.67c-1.04-.46-1.99-1.07-2.79-1.87a8.6 8.6 0 0 1-1.87-2.79c-.46-1.07-.67-2.2-.67-3.4s.21-2.33.67-3.4Zm8.05 7.53c2.27 0 4.13-1.84 4.13-4.13s-1.87-4.13-4.13-4.13-4.13 1.87-4.13 4.13 1.84 4.13 4.13 4.13m15.44 3.89c-1.04-.43-1.99-1.07-2.79-1.87s-1.44-1.75-1.87-2.79c-.46-1.07-.67-2.2-.67-3.4s.21-2.3.67-3.4a8.8 8.8 0 0 1 1.87-2.76c.8-.8 1.75-1.44 2.79-1.87a8.62 8.62 0 0 1 6.8 0c1.01.43 1.96 1.07 2.76 1.87s1.44 1.71 1.87 2.76c.46 1.1.7 2.24.7 3.4s-.25 2.33-.7 3.4c-.43 1.04-1.07 1.99-1.87 2.79s-1.71 1.44-2.76 1.87c-1.1.46-2.24.67-3.4.67s-2.33-.21-3.4-.67m3.4-3.92c2.27 0 4.13-1.84 4.13-4.13s-1.87-4.13-4.13-4.13-4.13 1.87-4.13 4.13 1.84 4.13 4.13 4.13m14.78 3.92c-1.04-.43-1.99-1.07-2.79-1.87s-1.44-1.75-1.87-2.79c-.46-1.07-.67-2.2-.67-3.4s.21-2.3.67-3.4a8.8 8.8 0 0 1 1.87-2.76c.8-.8 1.75-1.44 2.79-1.87a8.62 8.62 0 0 1 6.8 0c1.01.43 1.96 1.07 2.76 1.87s1.44 1.71 1.87 2.76c.46 1.1.7 2.24.7 3.4s-.25 2.33-.7 3.4c-.43 1.04-1.07 1.99-1.87 2.79s-1.71 1.44-2.76 1.87c-1.1.46-2.24.67-3.4.67s-2.33-.21-3.4-.67m3.4-3.92c2.27 0 4.13-1.84 4.13-4.13s-1.87-4.13-4.13-4.13-4.13 1.87-4.13 4.13 1.84 4.13 4.13 4.13M94.75 2.89v24.68h-4.62V4.42zm3.84 22.26c-1.62-1.62-2.54-3.8-2.54-6.09s.92-4.47 2.54-6.12c1.62-1.62 3.8-2.51 6.09-2.51s4.47.89 6.09 2.51a8.55 8.55 0 0 1 2.54 6.12v2.2h-12.19c.77 1.19 2.05 1.96 3.55 1.96 1.16 0 2.27-.46 3.06-1.32l3.22 3.06c-.8.86-1.75 1.5-2.79 1.99-1.1.46-2.27.7-3.49.7-2.3 0-4.47-.89-6.09-2.51Zm9.64-8.33c-.73-1.16-2.05-1.96-3.55-1.96s-2.79.8-3.55 1.96zm6.91-.67a9.8 9.8 0 0 1 2.14-3.15c.89-.92 1.96-1.62 3.15-2.14 1.22-.52 2.51-.77 3.86-.77v4.59c-2.94 0-5.36 2.39-5.36 5.36v7.53h-4.59v-7.53c0-1.35.28-2.66.8-3.89"/></svg>