<?xml version="1.0" encoding="UTF-8"?>
<svg xmlns="http://www.w3.org/2000/svg" version="1.1" viewBox="0 0 140 39">
  <defs>
    <style>
      .cls-1 {
        fill: #3e61ce;
      }

      .cls-2 {
        fill: #fff;
      }
    </style>
  </defs>
  <!-- Generator: Adobe Illustrator 28.7.9, SVG Export Plug-In . SVG Version: 1.2.0 Build 218)  -->
  <g>
    <g id="katman_1">
      <rect class="cls-1" x="0" width="140" height="39" rx="12" ry="12"/>
      <g>
        <g id="path384302">
          <path class="cls-2" d="M16.35,24.05l-.65-.69,3.16-3.78.82,1.03c.64.8,1.48,1.46,2.41,1.9.88.42,1.83.63,2.75.63,1.08,0,2.01-.24,2.6-.67.54-.39.8-.91.8-1.6,0-.75-.23-1.21-.81-1.65-.67-.5-1.76-.91-3.03-1.39-.11-.04-.22-.08-.33-.13-1.74-.65-3.4-1.31-4.74-2.38-.78-.62-1.35-1.3-1.76-2.09-.45-.87-.68-1.86-.68-2.94,0-1.88.81-3.63,2.29-4.91,1.43-1.24,3.36-1.92,5.43-1.92,2.67,0,5.28.96,7.53,2.78l.81.66-2.94,3.82-.86-.7c-1.51-1.25-3.17-1.96-4.55-1.96-1.29,0-2.79.56-2.82,2.13,0,.7.33,1.08.84,1.44.73.51,1.9.96,3.13,1.43h.01c.19.08.39.16.58.23,1.74.68,3.39,1.33,4.64,2.35,1.48,1.22,2.2,2.82,2.2,4.91,0,1.13-.24,2.18-.72,3.12-.45.88-1.09,1.65-1.92,2.28-1.51,1.15-3.54,1.79-5.72,1.79-3.23,0-6.23-1.32-8.47-3.71Z"/>
        </g>
        <g id="path384304">
          <path class="cls-2" d="M34.54,15.66c.43-1.04,1.07-1.96,1.87-2.76.8-.83,1.75-1.44,2.79-1.87,1.07-.46,2.2-.7,3.4-.7s2.3.24,3.4.7c1.04.43,1.96,1.04,2.76,1.87.8.8,1.44,1.71,1.87,2.76.46,1.07.7,2.24.7,3.4v13.04l-4.59,1.53v-6.89l-.73.37c-1.1.46-2.24.67-3.4.67s-2.33-.21-3.4-.67c-1.04-.46-1.99-1.07-2.79-1.87-.8-.8-1.44-1.75-1.87-2.79-.46-1.07-.67-2.2-.67-3.4s.21-2.33.67-3.4ZM42.59,23.19c2.27,0,4.13-1.84,4.13-4.13s-1.87-4.13-4.13-4.13-4.13,1.87-4.13,4.13,1.84,4.13,4.13,4.13Z"/>
        </g>
        <g id="path384306">
          <path class="cls-2" d="M58.03,27.08c-1.04-.43-1.99-1.07-2.79-1.87s-1.44-1.75-1.87-2.79c-.46-1.07-.67-2.2-.67-3.4s.21-2.3.67-3.4c.43-1.01,1.07-1.96,1.87-2.76.8-.8,1.75-1.44,2.79-1.87,1.07-.46,2.2-.7,3.4-.7s2.3.24,3.4.7c1.01.43,1.96,1.07,2.76,1.87.8.8,1.44,1.71,1.87,2.76.46,1.1.7,2.24.7,3.4s-.25,2.33-.7,3.4c-.43,1.04-1.07,1.99-1.87,2.79s-1.71,1.44-2.76,1.87c-1.1.46-2.24.67-3.4.67s-2.33-.21-3.4-.67ZM61.43,23.16c2.27,0,4.13-1.84,4.13-4.13s-1.87-4.13-4.13-4.13-4.13,1.87-4.13,4.13,1.84,4.13,4.13,4.13Z"/>
        </g>
        <g id="path384308">
          <path class="cls-2" d="M76.21,27.08c-1.04-.43-1.99-1.07-2.79-1.87s-1.44-1.75-1.87-2.79c-.46-1.07-.67-2.2-.67-3.4s.21-2.3.67-3.4c.43-1.01,1.07-1.96,1.87-2.76.8-.8,1.75-1.44,2.79-1.87,1.07-.46,2.2-.7,3.4-.7s2.3.24,3.4.7c1.01.43,1.96,1.07,2.76,1.87.8.8,1.44,1.71,1.87,2.76.46,1.1.7,2.24.7,3.4s-.25,2.33-.7,3.4c-.43,1.04-1.07,1.99-1.87,2.79s-1.71,1.44-2.76,1.87c-1.1.46-2.24.67-3.4.67s-2.33-.21-3.4-.67ZM79.61,23.16c2.27,0,4.13-1.84,4.13-4.13s-1.87-4.13-4.13-4.13-4.13,1.87-4.13,4.13,1.84,4.13,4.13,4.13Z"/>
        </g>
        <g id="path384310">
          <path class="cls-2" d="M94.75,2.89v24.68h-4.62V4.42l4.62-1.53Z"/>
        </g>
        <g id="path384312">
          <path class="cls-2" d="M98.59,25.15c-1.62-1.62-2.54-3.8-2.54-6.09s.92-4.47,2.54-6.12c1.62-1.62,3.8-2.51,6.09-2.51s4.47.89,6.09,2.51c1.65,1.65,2.54,3.8,2.54,6.12v2.2h-12.19c.77,1.19,2.05,1.96,3.55,1.96,1.16,0,2.27-.46,3.06-1.32l3.22,3.06c-.8.86-1.75,1.5-2.79,1.99-1.1.46-2.27.7-3.49.7-2.3,0-4.47-.89-6.09-2.51ZM108.23,16.82c-.73-1.16-2.05-1.96-3.55-1.96s-2.79.8-3.55,1.96h7.1Z"/>
        </g>
        <g id="path384314">
          <path class="cls-2" d="M115.14,16.15c.49-1.16,1.22-2.24,2.14-3.15.89-.92,1.96-1.62,3.15-2.14,1.22-.52,2.51-.77,3.86-.77v4.59c-2.94,0-5.36,2.39-5.36,5.36v7.53h-4.59v-7.53c0-1.35.28-2.66.8-3.89Z"/>
        </g>
      </g>
    </g>
  </g>
</svg>